<?xml version="1.0" encoding="UTF-8" standalone="no"?>
<!-- Created with Inkscape (http://www.inkscape.org/) -->

<svg
   xmlns:dc="http://purl.org/dc/elements/1.1/"
   xmlns:cc="http://creativecommons.org/ns#"
   xmlns:rdf="http://www.w3.org/1999/02/22-rdf-syntax-ns#"
   xmlns:svg="http://www.w3.org/2000/svg"
   xmlns="http://www.w3.org/2000/svg"
   xmlns:sodipodi="http://sodipodi.sourceforge.net/DTD/sodipodi-0.dtd"
   xmlns:inkscape="http://www.inkscape.org/namespaces/inkscape"
   width="280.74939"
   height="88.888809"
   id="svg3715"
   version="1.1"
   inkscape:version="0.48.1 r9760"
   sodipodi:docname="New document 4">
  <defs
     id="defs3717">
    <clipPath
       clipPathUnits="userSpaceOnUse"
       id="clipPath206">
      <path
         inkscape:connector-curvature="0"
         d="m 400.28,647.264 -224.6,0 0,-71.684 224.6,0 0,71.684 z"
         id="path208" />
    </clipPath>
    <clipPath
       clipPathUnits="userSpaceOnUse"
       id="clipPath190">
      <path
         inkscape:connector-curvature="0"
         d="m 400.28,647.264 -224.6,0 0,-71.684 224.6,0 0,71.684 z"
         id="path192" />
    </clipPath>
    <clipPath
       clipPathUnits="userSpaceOnUse"
       id="clipPath158">
      <path
         inkscape:connector-curvature="0"
         d="m 400.28,647.264 -224.6,0 0,-71.684 224.6,0 0,71.684 z"
         id="path160" />
    </clipPath>
  </defs>
  <sodipodi:namedview
     id="base"
     pagecolor="#ffffff"
     bordercolor="#666666"
     borderopacity="1.0"
     inkscape:pageopacity="0.0"
     inkscape:pageshadow="2"
     inkscape:zoom="0.98994949"
     inkscape:cx="304.67851"
     inkscape:cy="56.407898"
     inkscape:document-units="px"
     inkscape:current-layer="layer1"
     showgrid="false"
     fit-margin-top="0"
     fit-margin-left="0"
     fit-margin-right="0"
     fit-margin-bottom="0"
     inkscape:window-width="1366"
     inkscape:window-height="693"
     inkscape:window-x="0"
     inkscape:window-y="25"
     inkscape:window-maximized="1" />
  <metadata
     id="metadata3720">
    <rdf:RDF>
      <cc:Work
         rdf:about="">
        <dc:format>image/svg+xml</dc:format>
        <dc:type
           rdf:resource="http://purl.org/dc/dcmitype/StillImage" />
        <dc:title></dc:title>
      </cc:Work>
    </rdf:RDF>
  </metadata>
  <g
     inkscape:label="Layer 1"
     inkscape:groupmode="layer"
     id="layer1"
     transform="translate(-144.48246,-339.34636)">
    <path
       inkscape:connector-curvature="0"
       d="m 156.8612,382.89328 c 0,0.9475 -0.84499,1.715 -1.88625,1.715 -1.04125,0 -1.88625,-0.7675 -1.88625,-1.715 0,-0.94625 0.845,-1.71375 1.88625,-1.71375 1.04126,0 1.88625,0.7675 1.88625,1.71375"
       style="fill:#231f20;fill-opacity:1;fill-rule:nonzero;stroke:none"
       id="path112" />
    <path
       inkscape:connector-curvature="0"
       d="m 156.8612,382.89328 c 0,0.9475 -0.84499,1.715 -1.88625,1.715 -1.04125,0 -1.88625,-0.7675 -1.88625,-1.715 0,-0.94625 0.845,-1.71375 1.88625,-1.71375 1.04126,0 1.88625,0.7675 1.88625,1.71375 z"
       style="fill:none;stroke:#231f20;stroke-width:0.51375002;stroke-linecap:butt;stroke-linejoin:miter;stroke-miterlimit:4;stroke-opacity:1;stroke-dasharray:none"
       id="path114" />
    <path
       inkscape:connector-curvature="0"
       d="m 184.63245,382.89328 c 0,0.9475 -0.84499,1.715 -1.88624,1.715 -1.04126,0 -1.88501,-0.7675 -1.88501,-1.715 0,-0.94625 0.84375,-1.71375 1.88501,-1.71375 1.04125,0 1.88624,0.7675 1.88624,1.71375"
       style="fill:#231f20;fill-opacity:1;fill-rule:nonzero;stroke:none"
       id="path116" />
    <path
       inkscape:connector-curvature="0"
       d="m 184.63245,382.89328 c 0,0.9475 -0.84499,1.715 -1.88624,1.715 -1.04126,0 -1.88501,-0.7675 -1.88501,-1.715 0,-0.94625 0.84375,-1.71375 1.88501,-1.71375 1.04125,0 1.88624,0.7675 1.88624,1.71375 z"
       style="fill:none;stroke:#231f20;stroke-width:0.51375002;stroke-linecap:butt;stroke-linejoin:miter;stroke-miterlimit:4;stroke-opacity:1;stroke-dasharray:none"
       id="path118" />
    <path
       inkscape:connector-curvature="0"
       d="m 211.37496,382.89328 c 0,0.9475 -0.84375,1.715 -1.88626,1.715 -1.04125,0 -1.885,-0.7675 -1.885,-1.715 0,-0.94625 0.84375,-1.71375 1.885,-1.71375 1.04251,0 1.88626,0.7675 1.88626,1.71375"
       style="fill:#231f20;fill-opacity:1;fill-rule:nonzero;stroke:none"
       id="path120" />
    <path
       inkscape:connector-curvature="0"
       d="m 211.37496,382.89328 c 0,0.9475 -0.84375,1.715 -1.88626,1.715 -1.04125,0 -1.885,-0.7675 -1.885,-1.715 0,-0.94625 0.84375,-1.71375 1.885,-1.71375 1.04251,0 1.88626,0.7675 1.88626,1.71375 z"
       style="fill:none;stroke:#231f20;stroke-width:0.51375002;stroke-linecap:butt;stroke-linejoin:miter;stroke-miterlimit:4;stroke-opacity:1;stroke-dasharray:none"
       id="path122" />
    <path
       inkscape:connector-curvature="0"
       d="m 237.60371,382.89328 c 0,0.9475 -0.845,1.715 -1.88625,1.715 -1.04126,0 -1.88501,-0.7675 -1.88501,-1.715 0,-0.94625 0.84375,-1.71375 1.88501,-1.71375 1.04125,0 1.88625,0.7675 1.88625,1.71375"
       style="fill:#231f20;fill-opacity:1;fill-rule:nonzero;stroke:none"
       id="path124" />
    <path
       inkscape:connector-curvature="0"
       d="m 237.60371,382.89328 c 0,0.9475 -0.845,1.715 -1.88625,1.715 -1.04126,0 -1.88501,-0.7675 -1.88501,-1.715 0,-0.94625 0.84375,-1.71375 1.88501,-1.71375 1.04125,0 1.88625,0.7675 1.88625,1.71375 z"
       style="fill:none;stroke:#231f20;stroke-width:0.51375002;stroke-linecap:butt;stroke-linejoin:miter;stroke-miterlimit:4;stroke-opacity:1;stroke-dasharray:none"
       id="path126" />
    <path
       inkscape:connector-curvature="0"
       d="m 260.74621,382.89328 c 0,0.9475 -0.84375,1.715 -1.88501,1.715 -1.04249,0 -1.88624,-0.7675 -1.88624,-1.715 0,-0.94625 0.84375,-1.71375 1.88624,-1.71375 1.04126,0 1.88501,0.7675 1.88501,1.71375"
       style="fill:#231f20;fill-opacity:1;fill-rule:nonzero;stroke:none"
       id="path128" />
    <path
       inkscape:connector-curvature="0"
       d="m 260.74621,382.89328 c 0,0.9475 -0.84375,1.715 -1.88501,1.715 -1.04249,0 -1.88624,-0.7675 -1.88624,-1.715 0,-0.94625 0.84375,-1.71375 1.88624,-1.71375 1.04126,0 1.88501,0.7675 1.88501,1.71375 z"
       style="fill:none;stroke:#231f20;stroke-width:0.51375002;stroke-linecap:butt;stroke-linejoin:miter;stroke-miterlimit:4;stroke-opacity:1;stroke-dasharray:none"
       id="path130" />
    <path
       inkscape:connector-curvature="0"
       d="m 284.91746,382.55078 c 0,0.94625 -0.84375,1.71375 -1.885,1.71375 -1.04251,0 -1.88626,-0.7675 -1.88626,-1.71375 0,-0.94625 0.84375,-1.71375 1.88626,-1.71375 1.04125,0 1.885,0.7675 1.885,1.71375"
       style="fill:#231f20;fill-opacity:1;fill-rule:nonzero;stroke:none"
       id="path132" />
    <path
       inkscape:connector-curvature="0"
       d="m 284.91746,382.55078 c 0,0.94625 -0.84375,1.71375 -1.885,1.71375 -1.04251,0 -1.88626,-0.7675 -1.88626,-1.71375 0,-0.94625 0.84375,-1.71375 1.88626,-1.71375 1.04125,0 1.885,0.7675 1.885,1.71375 z"
       style="fill:none;stroke:#231f20;stroke-width:0.51375002;stroke-linecap:butt;stroke-linejoin:miter;stroke-miterlimit:4;stroke-opacity:1;stroke-dasharray:none"
       id="path134" />
    <path
       inkscape:connector-curvature="0"
       d="m 393.94621,368.83703 c 0,0.94625 -0.84375,1.71375 -1.885,1.71375 -1.0425,0 -1.88625,-0.7675 -1.88625,-1.71375 0,-0.9475 0.84375,-1.715 1.88625,-1.715 1.04125,0 1.885,0.7675 1.885,1.715"
       style="fill:#231f20;fill-opacity:1;fill-rule:nonzero;stroke:none"
       id="path136" />
    <path
       inkscape:connector-curvature="0"
       d="m 393.94621,368.83703 c 0,0.94625 -0.84375,1.71375 -1.885,1.71375 -1.0425,0 -1.88625,-0.7675 -1.88625,-1.71375 0,-0.9475 0.84375,-1.715 1.88625,-1.715 1.04125,0 1.885,0.7675 1.885,1.715 z"
       style="fill:none;stroke:#231f20;stroke-width:0.51375002;stroke-linecap:butt;stroke-linejoin:miter;stroke-miterlimit:4;stroke-opacity:1;stroke-dasharray:none"
       id="path138" />
    <path
       inkscape:connector-curvature="0"
       d="m 394.46121,393.00828 c 0,0.94625 -0.845,1.71375 -1.88625,1.71375 -1.0425,0 -1.885,-0.7675 -1.885,-1.71375 0,-0.9475 0.8425,-1.715 1.885,-1.715 1.04125,0 1.88625,0.7675 1.88625,1.715"
       style="fill:#231f20;fill-opacity:1;fill-rule:nonzero;stroke:none"
       id="path140" />
    <path
       inkscape:connector-curvature="0"
       d="m 394.46121,393.00828 c 0,0.94625 -0.845,1.71375 -1.88625,1.71375 -1.0425,0 -1.885,-0.7675 -1.885,-1.71375 0,-0.9475 0.8425,-1.715 1.885,-1.715 1.04125,0 1.88625,0.7675 1.88625,1.715 z"
       style="fill:none;stroke:#231f20;stroke-width:0.51375002;stroke-linecap:butt;stroke-linejoin:miter;stroke-miterlimit:4;stroke-opacity:1;stroke-dasharray:none"
       id="path142" />
    <path
       inkscape:connector-curvature="0"
       d="m 409.03246,380.83703 c 0,0.94625 -0.845,1.71375 -1.88625,1.71375 -1.0425,0 -1.885,-0.7675 -1.885,-1.71375 0,-0.9475 0.8425,-1.715 1.885,-1.715 1.04125,0 1.88625,0.7675 1.88625,1.715"
       style="fill:#231f20;fill-opacity:1;fill-rule:nonzero;stroke:none"
       id="path144" />
    <path
       inkscape:connector-curvature="0"
       d="m 409.03246,380.83703 c 0,0.94625 -0.845,1.71375 -1.88625,1.71375 -1.0425,0 -1.885,-0.7675 -1.885,-1.71375 0,-0.9475 0.8425,-1.715 1.885,-1.715 1.04125,0 1.88625,0.7675 1.88625,1.715 z"
       style="fill:none;stroke:#231f20;stroke-width:0.51375002;stroke-linecap:butt;stroke-linejoin:miter;stroke-miterlimit:4;stroke-opacity:1;stroke-dasharray:none"
       id="path146" />
    <path
       inkscape:connector-curvature="0"
       d="m 380.06121,381.17953 c 0,0.94625 -0.845,1.71375 -1.88625,1.71375 -1.0425,0 -1.885,-0.7675 -1.885,-1.71375 0,-0.9475 0.8425,-1.71375 1.885,-1.71375 1.04125,0 1.88625,0.76625 1.88625,1.71375"
       style="fill:#231f20;fill-opacity:1;fill-rule:nonzero;stroke:none"
       id="path148" />
    <path
       inkscape:connector-curvature="0"
       d="m 380.06121,381.17953 c 0,0.94625 -0.845,1.71375 -1.88625,1.71375 -1.0425,0 -1.885,-0.7675 -1.885,-1.71375 0,-0.9475 0.8425,-1.71375 1.885,-1.71375 1.04125,0 1.88625,0.76625 1.88625,1.71375 z"
       style="fill:none;stroke:#231f20;stroke-width:0.51375002;stroke-linecap:butt;stroke-linejoin:miter;stroke-miterlimit:4;stroke-opacity:1;stroke-dasharray:none"
       id="path150" />
    <path
       inkscape:connector-curvature="0"
       d="m 373.20371,397.97828 c 0,0.9475 -0.845,1.715 -1.88625,1.715 -1.0425,0 -1.885,-0.7675 -1.885,-1.715 0,-0.94625 0.8425,-1.71375 1.885,-1.71375 1.04125,0 1.88625,0.7675 1.88625,1.71375"
       style="fill:#231f20;fill-opacity:1;fill-rule:nonzero;stroke:none"
       id="path152" />
    <g
       transform="matrix(1.25,0,0,-1.25,-75.11754,1147.7108)"
       clip-path="url(#clipPath158)"
       id="g156">
      <path
         inkscape:connector-curvature="0"
         id="path162"
         style="fill:none;stroke:#231f20;stroke-width:0.41100001;stroke-linecap:butt;stroke-linejoin:miter;stroke-miterlimit:4;stroke-opacity:1;stroke-dasharray:none"
         d="m 358.657,599.786 c 0,-0.758 -0.676,-1.372 -1.509,-1.372 -0.834,0 -1.508,0.614 -1.508,1.372 0,0.757 0.674,1.371 1.508,1.371 0.833,0 1.509,-0.614 1.509,-1.371 z m 13.577,23.313 -9.6,-8.503 m 0,-2.742 11.52,-8.092 m 0,0 11.657,9.737 m 0,0 -12.068,9.6 m 0.411,-19.337 -0.411,19.337 m -18.103,-23.313 6.994,13.439 m -5.486,-13.439 17.006,3.976 m -190.08,8.092 -6.172,11.52 m 6.172,-11.52 6.583,10.697 m -6.583,-10.697 4.114,-16.457 m -4.114,16.457 -8.229,-11.109 m 30.446,11.109 6.994,8.228 m -8.502,-8.228 -5.486,9.874 m 5.486,-9.874 -4.663,-13.577 m 6.171,13.577 0.411,-15.223 m 20.983,15.223 7.406,9.463 m -7.406,-9.463 -6.994,9.874 m 6.994,-9.874 -5.348,-11.52 m 5.348,11.52 7.406,-12.755 m 7.817,23.452 5.76,-10.697 m 0,0 7.406,10.697 m -7.406,-10.697 -0.823,-13.166 m 19.338,13.166 -5.349,10.697 m 5.349,-10.697 5.76,10.697 m -5.76,-10.697 0.411,-11.52 m 18.926,11.794 7.405,9.6 m -7.405,-9.6 -6.995,9.189 m 6.995,-9.189 -7.817,-14.674 m 7.817,16.045 5.348,-11.931" />
    </g>
    <path
       inkscape:connector-curvature="0"
       d="m 352.80371,354.95078 c 0,0.94625 -0.845,1.71375 -1.88625,1.71375 -1.04125,0 -1.885,-0.7675 -1.885,-1.71375 0,-0.94625 0.84375,-1.71375 1.885,-1.71375 1.04125,0 1.88625,0.7675 1.88625,1.71375"
       style="fill:#231f20;fill-opacity:1;fill-rule:nonzero;stroke:none"
       id="path164" />
    <path
       inkscape:connector-curvature="0"
       d="m 352.80371,354.95078 c 0,0.94625 -0.845,1.71375 -1.88625,1.71375 -1.04125,0 -1.885,-0.7675 -1.885,-1.71375 0,-0.94625 0.84375,-1.71375 1.885,-1.71375 1.04125,0 1.88625,0.7675 1.88625,1.71375 z"
       style="fill:none;stroke:#231f20;stroke-width:0.51375002;stroke-linecap:butt;stroke-linejoin:miter;stroke-miterlimit:4;stroke-opacity:1;stroke-dasharray:none"
       id="path166" />
    <path
       inkscape:connector-curvature="0"
       d="m 353.31746,379.12203 c 0,0.9475 -0.84375,1.715 -1.885,1.715 -1.0425,0 -1.88625,-0.7675 -1.88625,-1.715 0,-0.94625 0.84375,-1.71375 1.88625,-1.71375 1.04125,0 1.885,0.7675 1.885,1.71375"
       style="fill:#231f20;fill-opacity:1;fill-rule:nonzero;stroke:none"
       id="path168" />
    <path
       inkscape:connector-curvature="0"
       d="m 353.31746,379.12203 c 0,0.9475 -0.84375,1.715 -1.885,1.715 -1.0425,0 -1.88625,-0.7675 -1.88625,-1.715 0,-0.94625 0.84375,-1.71375 1.88625,-1.71375 1.04125,0 1.885,0.7675 1.885,1.71375 z"
       style="fill:none;stroke:#231f20;stroke-width:0.51375002;stroke-linecap:butt;stroke-linejoin:miter;stroke-miterlimit:4;stroke-opacity:1;stroke-dasharray:none"
       id="path170" />
    <path
       inkscape:connector-curvature="0"
       d="m 367.88871,366.95078 c 0,0.94625 -0.84375,1.71375 -1.885,1.71375 -1.0425,0 -1.88625,-0.7675 -1.88625,-1.71375 0,-0.9475 0.84375,-1.71375 1.88625,-1.71375 1.04125,0 1.885,0.76625 1.885,1.71375"
       style="fill:#231f20;fill-opacity:1;fill-rule:nonzero;stroke:none"
       id="path172" />
    <path
       inkscape:connector-curvature="0"
       d="m 367.88871,366.95078 c 0,0.94625 -0.84375,1.71375 -1.885,1.71375 -1.0425,0 -1.88625,-0.7675 -1.88625,-1.71375 0,-0.9475 0.84375,-1.71375 1.88625,-1.71375 1.04125,0 1.885,0.76625 1.885,1.71375 z m -16.45625,12.17125 14.57125,-12.17125 m 0,0 -15.08625,-12 m 0.515,24.17125 -0.515,-24.17125"
       style="fill:none;stroke:#231f20;stroke-width:0.51375002;stroke-linecap:butt;stroke-linejoin:miter;stroke-miterlimit:4;stroke-opacity:1;stroke-dasharray:none"
       id="path174" />
    <path
       inkscape:connector-curvature="0"
       d="m 409.88996,397.12203 c 0,0.9475 -0.845,1.715 -1.88625,1.715 -1.0425,0 -1.885,-0.7675 -1.885,-1.715 0,-0.94625 0.8425,-1.71375 1.885,-1.71375 1.04125,0 1.88625,0.7675 1.88625,1.71375"
       style="fill:#231f20;fill-opacity:1;fill-rule:nonzero;stroke:none"
       id="path176" />
    <path
       inkscape:connector-curvature="0"
       d="m 409.88996,397.12203 c 0,0.9475 -0.845,1.715 -1.88625,1.715 -1.0425,0 -1.885,-0.7675 -1.885,-1.715 0,-0.94625 0.8425,-1.71375 1.885,-1.71375 1.04125,0 1.88625,0.7675 1.88625,1.71375 z"
       style="fill:none;stroke:#231f20;stroke-width:0.51375002;stroke-linecap:butt;stroke-linejoin:miter;stroke-miterlimit:4;stroke-opacity:1;stroke-dasharray:none"
       id="path178" />
    <path
       inkscape:connector-curvature="0"
       d="m 410.40371,421.29328 c 0,0.9475 -0.845,1.715 -1.88625,1.715 -1.04125,0 -1.885,-0.7675 -1.885,-1.715 0,-0.94625 0.84375,-1.71375 1.885,-1.71375 1.04125,0 1.88625,0.7675 1.88625,1.71375"
       style="fill:#231f20;fill-opacity:1;fill-rule:nonzero;stroke:none"
       id="path180" />
    <path
       inkscape:connector-curvature="0"
       d="m 410.40371,421.29328 c 0,0.9475 -0.845,1.715 -1.88625,1.715 -1.04125,0 -1.885,-0.7675 -1.885,-1.715 0,-0.94625 0.84375,-1.71375 1.885,-1.71375 1.04125,0 1.88625,0.7675 1.88625,1.71375 z"
       style="fill:none;stroke:#231f20;stroke-width:0.51375002;stroke-linecap:butt;stroke-linejoin:miter;stroke-miterlimit:4;stroke-opacity:1;stroke-dasharray:none"
       id="path182" />
    <path
       inkscape:connector-curvature="0"
       d="m 424.97496,409.12203 c 0,0.9475 -0.845,1.71375 -1.88625,1.71375 -1.04125,0 -1.885,-0.76625 -1.885,-1.71375 0,-0.94625 0.84375,-1.715 1.885,-1.715 1.04125,0 1.88625,0.76875 1.88625,1.715"
       style="fill:#231f20;fill-opacity:1;fill-rule:nonzero;stroke:none"
       id="path184" />
    <g
       transform="matrix(1.25,0,0,-1.25,-75.11754,1147.7108)"
       id="g186">
      <g
         id="g188"
         clip-path="url(#clipPath190)">
        <path
           inkscape:connector-curvature="0"
           d="m 400.074,590.871 c 0,-0.758 -0.676,-1.371 -1.509,-1.371 -0.833,0 -1.508,0.613 -1.508,1.371 0,0.757 0.675,1.372 1.508,1.372 0.833,0 1.509,-0.615 1.509,-1.372 z"
           style="fill:none;stroke:#231f20;stroke-width:0.41100001;stroke-linecap:butt;stroke-linejoin:miter;stroke-miterlimit:4;stroke-opacity:1;stroke-dasharray:none"
           id="path194" />
      </g>
    </g>
    <path
       inkscape:connector-curvature="0"
       d="m 396.00371,409.46578 c 0,0.94625 -0.845,1.71375 -1.88625,1.71375 -1.04125,0 -1.885,-0.7675 -1.885,-1.71375 0,-0.9475 0.84375,-1.715 1.885,-1.715 1.04125,0 1.88625,0.7675 1.88625,1.715"
       style="fill:#231f20;fill-opacity:1;fill-rule:nonzero;stroke:none"
       id="path196" />
    <path
       inkscape:connector-curvature="0"
       d="m 396.00371,409.46578 c 0,0.94625 -0.845,1.71375 -1.88625,1.71375 -1.04125,0 -1.885,-0.7675 -1.885,-1.71375 0,-0.9475 0.84375,-1.715 1.885,-1.715 1.04125,0 1.88625,0.7675 1.88625,1.715 z"
       style="fill:none;stroke:#231f20;stroke-width:0.51375002;stroke-linecap:butt;stroke-linejoin:miter;stroke-miterlimit:4;stroke-opacity:1;stroke-dasharray:none"
       id="path198" />
    <path
       inkscape:connector-curvature="0"
       d="m 389.14621,426.26453 c 0,0.94625 -0.845,1.71375 -1.88625,1.71375 -1.04125,0 -1.885,-0.7675 -1.885,-1.71375 0,-0.9475 0.84375,-1.715 1.885,-1.715 1.04125,0 1.88625,0.7675 1.88625,1.715"
       style="fill:#231f20;fill-opacity:1;fill-rule:nonzero;stroke:none"
       id="path200" />
    <g
       transform="matrix(1.25,0,0,-1.25,-75.11754,1147.7108)"
       id="g202">
      <g
         id="g204"
         clip-path="url(#clipPath206)">
        <path
           inkscape:connector-curvature="0"
           d="m 371.411,577.157 c 0,-0.757 -0.676,-1.371 -1.509,-1.371 -0.833,0 -1.508,0.614 -1.508,1.371 0,0.758 0.675,1.372 1.508,1.372 0.833,0 1.509,-0.614 1.509,-1.372 z m 13.578,23.314 -9.601,-8.503 m 11.52,-10.834 11.657,9.737 m 0,0 -12.068,9.6 m -18.103,-23.314 6.994,13.439 m -5.486,-13.439 17.006,3.977"
           style="fill:none;stroke:#231f20;stroke-width:0.41100001;stroke-linecap:butt;stroke-linejoin:miter;stroke-miterlimit:4;stroke-opacity:1;stroke-dasharray:none"
           id="path210" />
      </g>
    </g>
    <text
       style="font-size:15px"
       y="348.43652"
       x="207.94632"
       id="text212">
      <tspan
         style="font-size:9.2571249px;font-variant:normal;font-weight:normal;writing-mode:lr-tb;fill:#231f20;fill-opacity:1;fill-rule:nonzero;stroke:none;font-family:Myriad;-inkscape-font-specification:Myriad-Roman"
         x="207.94632 212.2981 216.93683 220.18425 223.24835 225.41452 229.50711 234.14491 237.81073 239.77324"
         y="348.43652"
         sodipodi:role="line"
         id="tspan214">vertices S</tspan>
      <tspan
         style="font-size:9.2571249px;font-variant:normal;font-weight:normal;writing-mode:lr-tb;fill:#231f20;fill-opacity:1;fill-rule:nonzero;stroke:none;font-family:Myriad;-inkscape-font-specification:Myriad-Roman"
         x="364.289 369.37207 374.59399 379.81598 382.65881 386.32556 390.96432 394.02936 397.69611 399.65952"
         y="346.37961"
         sodipodi:role="line"
         id="tspan216">odd-sets O</tspan>
    </text>
    <text
       style="font-size:15px"
       y="349.46204"
       x="406.03833"
       id="text218">
      <tspan
         style="font-size:5.39687538px;font-variant:normal;font-weight:normal;writing-mode:lr-tb;fill:#231f20;fill-opacity:1;fill-rule:nonzero;stroke:none;font-family:Myriad;-inkscape-font-specification:Myriad-Roman"
         x="406.03833"
         y="349.46204"
         id="tspan220">j</tspan>
    </text>
  </g>
</svg>
